{"glyphs":{"0":{"ha":856,"x_min":19,"x_max":835,"o":"m 436 254 l 447 268 l 435 253 l 436 254 m 444 394 l 447 394 l 447 500 q 430 517 443 504 q 413 533 417 529 l 406 533 l 406 432 l 444 394 m 703 147 l 703 143 l 535 -26 l 188 -26 l 19 143 l 19 621 l 40 643 l 157 789 l 324 956 l 669 956 l 835 789 l 835 313 l 703 147 m 525 764 l 197 764 l 44 611 l 44 153 l 197 0 l 525 0 l 676 153 l 676 611 l 525 764 m 247 256 l 247 510 l 300 560 l 422 560 l 472 510 l 472 256 l 422 204 l 300 204 l 247 256 z "},"1":{"ha":543,"x_min":21,"x_max":522,"o":"m 25 789 l 158 954 l 522 954 l 522 146 l 390 -18 l 390 -26 l 136 -26 l 136 536 l 21 536 l 21 789 l 25 789 m 46 763 l 46 563 l 161 563 l 161 0 l 364 0 l 364 763 l 46 763 z "},"2":{"ha":819,"x_min":22,"x_max":793,"o":"m 663 -18 l 663 -26 l 22 -26 l 22 508 l 26 508 l 47 533 l 22 533 l 22 789 l 26 789 l 160 954 l 793 954 l 793 426 l 767 394 l 793 394 l 793 146 l 663 -18 m 251 204 l 251 281 l 636 281 l 636 763 l 47 763 l 47 558 l 432 558 l 432 482 l 47 482 l 47 0 l 636 0 l 636 204 l 251 204 z "},"3":{"ha":824,"x_min":18,"x_max":800,"o":"m 25 790 l 157 956 l 800 956 l 800 146 l 667 -18 l 667 -26 l 18 -26 l 18 231 l 25 231 l 150 385 l 150 510 l 154 510 l 174 533 l 18 533 l 18 790 l 25 790 m 44 764 l 44 560 l 439 560 l 439 483 l 175 483 l 175 281 l 439 281 l 439 204 l 44 204 l 44 0 l 642 0 l 642 764 l 44 764 z "},"4":{"ha":804,"x_min":21,"x_max":779,"o":"m 649 -18 l 649 -26 l 393 -26 l 393 229 l 136 229 l 21 346 l 21 790 l 25 790 l 158 956 l 407 956 l 407 800 l 531 956 l 779 956 l 779 146 l 649 -18 m 418 764 l 418 457 l 249 457 l 249 764 l 46 764 l 46 356 l 147 254 l 418 254 l 418 0 l 622 0 l 622 764 l 418 764 z "},"5":{"ha":793,"x_min":25,"x_max":764,"o":"m 632 -18 l 632 -26 l 25 -26 l 25 231 l 31 231 l 50 254 l 25 254 l 25 790 l 31 790 l 164 956 l 764 956 l 764 706 l 739 675 l 764 675 l 764 146 l 632 -18 m 254 483 l 254 560 l 607 560 l 607 764 l 51 764 l 51 281 l 403 281 l 403 204 l 51 204 l 51 0 l 607 0 l 607 483 l 254 483 z "},"6":{"ha":804,"x_min":28,"x_max":781,"o":"m 650 -18 l 650 -26 l 28 -26 l 28 790 l 33 790 l 165 956 l 781 956 l 781 706 l 749 667 l 781 667 l 781 146 l 650 -18 m 257 204 l 257 271 l 419 271 l 419 204 l 257 204 m 257 475 l 257 560 l 624 560 l 624 764 l 53 764 l 53 0 l 624 0 l 624 475 l 257 475 z "},"7":{"ha":785,"x_min":18,"x_max":763,"o":"m 374 -8 l 365 -26 l 74 -26 l 360 532 q 189 533 275 532 q 18 533 103 533 l 18 790 l 25 790 l 157 956 l 763 956 l 763 668 l 499 146 l 374 -8 m 604 764 l 44 764 l 44 560 l 401 556 l 117 0 l 350 0 l 604 506 l 604 764 z "},"8":{"ha":813,"x_min":21,"x_max":789,"o":"m 658 -18 l 658 -26 l 21 -26 l 21 789 l 26 789 l 158 954 l 789 954 l 789 146 l 658 -18 m 250 481 l 250 558 l 428 558 l 428 481 l 250 481 m 250 204 l 250 276 l 428 276 l 428 204 l 250 204 m 632 763 l 46 763 l 46 0 l 632 0 l 632 763 z "},"9":{"ha":800,"x_min":21,"x_max":778,"o":"m 646 -18 l 646 -26 l 21 -26 l 21 231 l 26 231 l 53 264 l 21 264 l 21 790 l 26 790 l 158 956 l 778 956 l 778 146 l 646 -18 m 250 493 l 250 560 l 417 560 l 417 493 l 250 493 m 621 764 l 46 764 l 46 289 l 417 289 l 417 204 l 46 204 l 46 0 l 621 0 l 621 764 z "},"B":{"ha":851,"x_min":28,"x_max":826,"o":"m 693 94 l 693 92 l 576 -26 l 28 -26 l 28 789 l 32 789 l 165 954 l 826 954 l 826 706 l 756 618 l 826 550 l 826 261 l 693 94 m 256 204 l 256 271 l 465 271 l 465 204 l 256 204 m 567 475 l 256 475 l 256 558 l 668 558 l 668 763 l 53 763 l 53 0 l 567 0 l 668 101 l 668 372 l 567 475 z "},"C":{"ha":847,"x_min":24,"x_max":824,"o":"m 692 -18 l 692 -26 l 24 -26 l 24 789 l 31 789 l 163 954 l 824 954 l 824 604 l 736 496 l 824 496 l 824 146 l 692 -18 m 461 306 l 461 204 l 254 204 l 254 558 l 461 558 l 461 457 l 665 457 l 665 763 l 50 763 l 50 0 l 665 0 l 665 306 l 461 306 z "},"D":{"ha":824,"x_min":18,"x_max":806,"o":"m 675 147 l 675 143 l 507 -26 l 18 -26 l 18 790 l 25 790 l 157 956 l 640 956 l 806 789 l 806 313 l 675 147 m 394 204 l 249 204 l 249 560 l 394 560 l 444 510 l 444 256 l 394 204 m 497 764 l 44 764 l 44 0 l 497 0 l 649 153 l 649 611 l 497 764 z "},"E":{"ha":851,"x_min":25,"x_max":824,"o":"m 693 -18 l 693 -26 l 25 -26 l 25 789 l 31 789 l 164 954 l 824 954 l 824 604 l 738 496 l 824 496 l 824 146 l 693 -18 m 463 306 l 463 204 l 254 204 l 254 279 l 411 279 l 411 482 l 254 482 l 254 558 l 463 558 l 463 457 l 667 457 l 667 763 l 51 763 l 51 0 l 667 0 l 667 306 l 463 306 z "},"F":{"ha":800,"x_min":19,"x_max":783,"o":"m 24 790 l 157 956 l 783 956 l 783 606 l 653 440 l 653 432 l 542 432 l 542 426 l 410 261 l 410 254 l 406 254 l 406 146 l 274 -18 l 274 -26 l 19 -26 l 19 790 l 24 790 m 44 764 l 44 0 l 247 0 l 247 281 l 383 281 l 383 483 l 247 483 l 247 560 l 424 560 l 424 458 l 626 458 l 626 764 l 44 764 z "},"G":{"ha":839,"x_min":17,"x_max":821,"o":"m 689 -18 l 689 -26 l 17 -26 l 17 789 l 24 789 l 156 954 l 821 954 l 821 146 l 689 -18 m 664 443 l 288 443 l 288 264 l 460 264 l 460 204 l 247 204 l 247 558 l 460 558 l 460 482 l 664 482 l 664 763 l 43 763 l 43 0 l 664 0 l 664 443 z "},"H":{"ha":828,"x_min":19,"x_max":807,"o":"m 426 790 l 558 956 l 807 956 l 807 146 l 676 -18 l 676 -26 l 419 -26 l 419 229 l 407 229 l 407 146 l 275 -18 l 275 -26 l 19 -26 l 19 790 l 25 790 l 158 956 l 407 956 l 407 649 l 419 649 l 419 790 l 426 790 m 446 764 l 446 457 l 250 457 l 250 764 l 46 764 l 46 0 l 250 0 l 250 254 l 446 254 l 446 0 l 650 0 l 650 764 l 446 764 z "},"I":{"ha":433,"x_min":22,"x_max":410,"o":"m 28 790 l 160 956 l 410 956 l 410 146 l 278 -18 l 278 -26 l 22 -26 l 22 790 l 28 790 m 47 764 l 47 0 l 251 0 l 251 764 l 47 764 z "},"J":{"ha":757,"x_min":21,"x_max":735,"o":"m 160 394 l 349 394 l 349 533 l 21 533 l 21 790 l 26 790 l 160 956 l 735 956 l 735 313 l 603 147 l 603 143 l 436 -26 l 21 -26 l 21 231 l 26 231 l 160 394 m 576 764 l 47 764 l 47 560 l 374 560 l 374 256 l 324 204 l 47 204 l 47 0 l 426 0 l 576 153 l 576 764 z "},"K":{"ha":813,"x_min":19,"x_max":793,"o":"m 406 790 l 411 790 l 544 956 l 793 956 l 793 651 l 704 540 l 793 451 l 793 146 l 661 -18 l 661 -26 l 406 -26 l 406 146 l 274 -18 l 274 -26 l 19 -26 l 19 790 l 24 790 l 157 956 l 406 956 l 406 790 m 526 382 l 635 492 l 635 764 l 432 764 l 432 575 l 340 483 l 247 483 l 247 764 l 44 764 l 44 0 l 247 0 l 247 281 l 340 281 l 432 189 l 432 0 l 635 0 l 635 274 l 526 382 z "},"L":{"ha":735,"x_min":24,"x_max":717,"o":"m 585 -18 l 585 -26 l 24 -26 l 24 789 l 29 789 l 161 954 l 411 954 l 411 408 l 468 481 l 717 481 l 717 146 l 585 -18 m 560 289 l 356 289 l 356 204 l 253 204 l 253 763 l 49 763 l 49 0 l 560 0 l 560 289 z "},"M":{"ha":953,"x_min":17,"x_max":935,"o":"m 563 789 l 694 954 l 935 954 l 935 146 l 804 -18 l 804 -26 l 547 -26 l 547 128 l 543 118 l 419 -35 l 408 -57 l 343 69 l 271 -18 l 271 -26 l 17 -26 l 17 789 l 21 789 l 154 954 l 393 954 l 518 713 q 538 750 529 731 q 557 789 547 769 l 563 789 m 574 763 l 410 443 l 244 763 l 42 763 l 42 0 l 244 0 l 244 318 l 408 0 l 410 0 l 574 318 l 574 0 l 778 0 l 778 763 l 574 763 z "},"N":{"ha":851,"x_min":18,"x_max":824,"o":"m 450 789 l 583 954 l 824 954 l 824 146 l 692 -18 l 692 -26 l 438 -26 l 438 218 l 394 146 l 275 -3 l 263 -26 l 18 -26 l 18 789 l 24 789 l 157 954 l 406 954 l 406 714 l 446 789 l 450 789 m 463 763 l 249 371 l 249 763 l 44 763 l 44 0 l 249 0 l 463 368 l 463 0 l 665 0 l 665 763 l 463 763 z "},"O":{"ha":851,"x_min":17,"x_max":832,"o":"m 433 254 l 444 268 l 432 253 l 433 254 m 442 394 l 444 394 l 444 500 q 427 517 440 504 q 410 533 414 529 l 403 533 l 403 432 l 442 394 m 700 147 l 700 143 l 532 -26 l 185 -26 l 17 143 l 17 621 l 38 643 l 154 789 l 321 956 l 667 956 l 832 789 l 832 313 l 700 147 m 522 764 l 194 764 l 42 611 l 42 153 l 194 0 l 522 0 l 674 153 l 674 611 l 522 764 m 244 256 l 244 510 l 297 560 l 419 560 l 469 510 l 469 256 l 419 204 l 297 204 l 244 256 z "},"P":{"ha":785,"x_min":19,"x_max":767,"o":"m 274 -18 l 274 -26 l 19 -26 l 19 789 l 24 789 l 157 954 l 650 954 l 767 839 l 767 518 l 635 354 l 635 349 l 517 231 l 406 231 l 406 146 l 274 -18 m 247 461 l 247 558 l 406 558 l 406 461 l 247 461 m 507 763 l 44 763 l 44 0 l 247 0 l 247 257 l 507 257 l 610 358 l 610 661 l 507 763 z "},"Q":{"ha":858,"x_min":17,"x_max":838,"o":"m 440 394 l 451 394 l 451 500 l 414 533 l 404 533 l 404 432 l 440 394 m 492 -135 l 492 -143 l 238 -143 l 238 -26 l 186 -26 l 17 143 l 17 621 l 39 643 l 156 789 l 322 956 l 671 956 l 838 789 l 838 313 l 706 147 l 706 143 l 624 61 l 624 29 l 492 -135 m 526 764 l 196 764 l 43 611 l 43 153 l 196 0 l 263 0 l 263 -118 l 465 -118 l 465 0 l 526 0 l 679 153 l 679 611 l 526 764 m 297 204 l 247 254 l 247 510 l 304 560 l 425 560 l 476 510 l 476 254 l 425 204 l 297 204 z "},"R":{"ha":836,"x_min":4,"x_max":817,"o":"m 286 -14 l 281 -26 l 4 -26 l 115 251 l 18 349 l 18 671 l 38 692 l 157 839 l 272 954 l 817 954 l 817 146 l 686 -18 l 686 -26 l 429 -26 l 429 185 l 414 146 l 286 -14 m 247 461 l 247 558 l 456 558 l 456 461 l 247 461 m 146 763 l 44 661 l 44 358 l 146 257 l 44 0 l 263 0 l 364 257 l 456 257 l 456 0 l 660 0 l 660 763 l 146 763 z "},"S":{"ha":776,"x_min":18,"x_max":761,"o":"m 629 -19 l 629 -28 l 18 -28 l 18 231 l 25 231 l 121 351 l 18 443 l 18 792 l 25 792 l 157 956 l 761 956 l 761 706 l 633 544 l 761 435 l 761 144 l 629 -19 m 250 560 l 603 560 l 603 764 l 46 764 l 46 456 l 326 204 l 46 204 l 46 0 l 603 0 l 603 256 l 250 560 z "},"T":{"ha":754,"x_min":14,"x_max":733,"o":"m 21 790 l 153 956 l 733 956 l 733 706 l 601 542 l 601 533 l 561 533 l 561 146 l 431 -18 l 431 -26 l 175 -26 l 175 533 l 14 533 l 14 790 l 21 790 m 40 764 l 40 560 l 201 560 l 201 0 l 404 0 l 404 560 l 575 560 l 575 764 l 40 764 z "},"U":{"ha":856,"x_min":13,"x_max":835,"o":"m 703 147 l 703 143 l 535 -26 l 182 -26 l 13 143 l 13 790 l 19 790 l 151 956 l 400 956 l 400 432 l 438 394 l 449 394 l 449 790 l 453 790 l 586 956 l 835 956 l 835 313 l 703 147 m 243 256 l 243 764 l 39 764 l 39 153 l 192 0 l 524 0 l 676 153 l 676 764 l 474 764 l 474 256 l 424 204 l 293 204 l 243 256 z "},"V":{"ha":863,"x_min":13,"x_max":843,"o":"m 463 790 l 594 956 l 843 956 l 843 521 l 618 146 l 501 -1 l 486 -26 l 240 -26 l 13 350 l 13 790 l 18 790 l 151 956 l 400 956 l 400 589 q 429 538 417 561 q 456 493 442 515 l 456 790 l 463 790 m 482 764 l 482 414 l 363 215 l 243 414 l 243 764 l 39 764 l 39 357 l 254 0 l 471 0 l 686 357 l 686 764 l 482 764 z "},"W":{"ha":1086,"x_min":22,"x_max":1068,"o":"m 936 -18 l 936 -26 l 22 -26 l 22 790 l 29 790 l 161 956 l 410 956 l 410 849 l 493 956 l 743 956 l 743 860 l 818 956 l 1068 956 l 1068 146 l 936 -18 m 706 764 l 706 204 l 585 204 l 585 764 l 381 764 l 381 204 l 253 204 l 253 764 l 49 764 l 49 0 l 910 0 l 910 764 l 706 764 z "},"X":{"ha":1026,"x_min":22,"x_max":1006,"o":"m 874 -18 l 874 -26 l 618 -26 l 618 32 l 576 -18 l 576 -26 l 321 -26 l 319 35 l 278 -18 l 278 -26 l 22 -26 l 22 283 l 44 306 l 113 392 l 90 414 q 56 448 74 431 q 22 481 38 465 l 22 790 l 29 790 l 161 956 l 410 956 l 410 893 l 458 956 l 707 956 l 707 893 l 757 956 l 1006 956 l 1006 651 l 917 540 q 1006 451 960 493 l 1006 146 l 874 -18 m 550 483 l 550 764 l 346 764 l 346 483 l 344 483 l 253 575 l 253 764 l 49 764 l 49 492 l 157 382 l 49 274 l 49 0 l 253 0 l 253 189 l 344 281 l 346 281 l 346 0 l 550 0 l 550 281 l 553 281 l 644 189 l 644 0 l 847 0 l 847 274 l 739 382 l 847 492 l 847 764 l 644 764 l 644 575 l 553 483 l 550 483 z "},"Y":{"ha":804,"x_min":19,"x_max":781,"o":"m 649 -18 l 649 -26 l 393 -26 l 393 229 l 138 229 l 19 346 l 19 790 l 26 790 l 158 956 l 407 956 l 407 800 l 532 956 l 781 956 l 781 146 l 649 -18 m 419 764 l 419 457 l 250 457 l 250 764 l 46 764 l 46 356 l 147 254 l 419 254 l 419 0 l 622 0 l 622 764 l 419 764 z "},"Z":{"ha":863,"x_min":28,"x_max":838,"o":"m 167 433 l 304 533 l 28 533 l 28 790 l 33 790 l 167 956 l 838 956 l 838 613 l 706 447 l 706 443 l 639 394 l 838 394 l 838 146 l 706 -18 l 706 -26 l 28 -26 l 28 267 l 39 274 l 167 433 m 331 204 l 679 456 l 679 764 l 54 764 l 54 560 l 478 560 l 54 254 l 54 0 l 679 0 l 679 204 l 331 204 z "},":":{"ha":433,"x_min":22,"x_max":408,"o":"m 28 231 l 161 394 l 408 394 l 408 146 l 276 -18 l 276 -26 l 22 -26 l 22 231 l 28 231 m 28 790 l 161 956 l 408 956 l 408 706 l 276 542 l 276 533 l 22 533 l 22 790 l 28 790 m 49 764 l 49 560 l 251 560 l 251 764 l 49 764 m 49 204 l 49 0 l 251 0 l 251 204 l 49 204 z "},";":{"ha":433,"x_min":22,"x_max":411,"o":"m 31 790 l 164 956 l 411 956 l 411 706 l 279 542 l 279 533 l 25 533 l 25 790 l 31 790 m 29 231 l 161 394 l 410 394 l 410 160 l 278 -6 l 278 -10 l 168 -119 l 22 -119 l 22 231 l 29 231 m 49 204 l 49 -94 l 157 -94 l 253 0 l 253 204 l 49 204 m 51 764 l 51 560 l 254 560 l 254 764 l 51 764 z "},"?":{"ha":769,"x_min":18,"x_max":750,"o":"m 343 533 l 322 533 l 272 469 l 272 463 l 18 463 l 18 789 l 22 789 l 156 954 l 750 954 l 750 682 l 557 399 l 553 394 l 564 394 l 564 146 l 432 -18 l 432 -26 l 164 -26 l 164 226 l 142 226 l 343 533 m 189 253 l 408 253 l 593 522 l 593 763 l 43 763 l 43 489 l 246 489 l 246 558 l 390 558 l 189 253 m 189 204 l 189 0 l 407 0 l 407 204 l 189 204 z "},".":{"ha":433,"x_min":25,"x_max":411,"o":"m 31 231 l 164 394 l 411 394 l 411 146 l 279 -18 l 279 -26 l 25 -26 l 25 231 l 31 231 m 51 204 l 51 0 l 254 0 l 254 204 l 51 204 z "},",":{"ha":438,"x_min":18,"x_max":406,"o":"m 25 231 l 157 394 l 406 394 l 406 160 l 274 -6 l 274 -10 l 164 -119 l 18 -119 l 18 231 l 25 231 m 44 204 l 44 -94 l 153 -94 l 249 0 l 249 204 l 44 204 z "}," ":{"ha":432,"x_min":0,"x_max":0,"o":""},"!":{"ha":433,"x_min":21,"x_max":407,"o":"m 25 789 l 158 954 l 407 954 l 407 413 l 393 394 l 407 394 l 407 146 l 275 -18 l 275 -26 l 21 -26 l 21 231 l 25 231 l 35 242 l 21 242 l 21 789 l 25 789 m 46 763 l 46 267 l 250 267 l 250 763 l 46 763 m 46 204 l 46 0 l 250 0 l 250 204 l 46 204 z "},"a":{"ha":933,"x_min":31,"x_max":901,"o":"m 771 -18 l 771 -26 l 515 -26 l 515 51 l 340 51 l 285 -18 l 285 -26 l 31 -26 l 31 307 l 35 307 l 119 410 l 119 790 l 124 790 l 258 956 l 842 956 l 842 472 l 901 472 l 901 146 l 771 -18 m 347 281 l 347 560 l 481 560 l 481 281 l 347 281 m 685 281 l 685 764 l 146 764 l 146 332 l 107 281 l 56 281 l 56 0 l 260 0 l 260 78 l 540 78 l 540 0 l 744 0 l 744 281 l 685 281 z "},"b":{"ha":851,"x_min":28,"x_max":826,"o":"m 693 94 l 693 92 l 576 -26 l 28 -26 l 28 789 l 32 789 l 165 954 l 826 954 l 826 706 l 756 618 l 826 550 l 826 261 l 693 94 m 256 204 l 256 271 l 465 271 l 465 204 l 256 204 m 567 475 l 256 475 l 256 558 l 668 558 l 668 763 l 53 763 l 53 0 l 567 0 l 668 101 l 668 372 l 567 475 z "},"c":{"ha":847,"x_min":24,"x_max":824,"o":"m 692 -18 l 692 -26 l 24 -26 l 24 789 l 31 789 l 163 954 l 824 954 l 824 604 l 736 496 l 824 496 l 824 146 l 692 -18 m 461 306 l 461 204 l 254 204 l 254 558 l 461 558 l 461 457 l 665 457 l 665 763 l 50 763 l 50 0 l 665 0 l 665 306 l 461 306 z "},"d":{"ha":824,"x_min":18,"x_max":806,"o":"m 675 147 l 675 143 l 507 -26 l 18 -26 l 18 790 l 25 790 l 157 956 l 640 956 l 806 789 l 806 313 l 675 147 m 394 204 l 249 204 l 249 560 l 394 560 l 444 510 l 444 256 l 394 204 m 497 764 l 44 764 l 44 0 l 497 0 l 649 153 l 649 611 l 497 764 z "},"e":{"ha":851,"x_min":25,"x_max":824,"o":"m 693 -18 l 693 -26 l 25 -26 l 25 789 l 31 789 l 164 954 l 824 954 l 824 604 l 738 496 l 824 496 l 824 146 l 693 -18 m 463 306 l 463 204 l 254 204 l 254 279 l 411 279 l 411 482 l 254 482 l 254 558 l 463 558 l 463 457 l 667 457 l 667 763 l 51 763 l 51 0 l 667 0 l 667 306 l 463 306 z "},"f":{"ha":800,"x_min":19,"x_max":783,"o":"m 24 790 l 157 956 l 783 956 l 783 606 l 653 440 l 653 432 l 542 432 l 542 426 l 410 261 l 410 254 l 406 254 l 406 146 l 274 -18 l 274 -26 l 19 -26 l 19 790 l 24 790 m 44 764 l 44 0 l 247 0 l 247 281 l 383 281 l 383 483 l 247 483 l 247 560 l 424 560 l 424 458 l 626 458 l 626 764 l 44 764 z "},"g":{"ha":839,"x_min":17,"x_max":821,"o":"m 689 -18 l 689 -26 l 17 -26 l 17 789 l 24 789 l 156 954 l 821 954 l 821 146 l 689 -18 m 664 443 l 288 443 l 288 264 l 460 264 l 460 204 l 247 204 l 247 558 l 460 558 l 460 482 l 664 482 l 664 763 l 43 763 l 43 0 l 664 0 l 664 443 z "},"h":{"ha":828,"x_min":19,"x_max":807,"o":"m 426 790 l 558 956 l 807 956 l 807 146 l 676 -18 l 676 -26 l 419 -26 l 419 229 l 407 229 l 407 146 l 275 -18 l 275 -26 l 19 -26 l 19 790 l 25 790 l 158 956 l 407 956 l 407 649 l 419 649 l 419 790 l 426 790 m 446 764 l 446 457 l 250 457 l 250 764 l 46 764 l 46 0 l 250 0 l 250 254 l 446 254 l 446 0 l 650 0 l 650 764 l 446 764 z "},"i":{"ha":433,"x_min":22,"x_max":410,"o":"m 28 790 l 160 956 l 410 956 l 410 146 l 278 -18 l 278 -26 l 22 -26 l 22 790 l 28 790 m 47 764 l 47 0 l 251 0 l 251 764 l 47 764 z "},"j":{"ha":757,"x_min":21,"x_max":735,"o":"m 160 394 l 349 394 l 349 533 l 21 533 l 21 790 l 26 790 l 160 956 l 735 956 l 735 313 l 603 147 l 603 143 l 436 -26 l 21 -26 l 21 231 l 26 231 l 160 394 m 576 764 l 47 764 l 47 560 l 374 560 l 374 256 l 324 204 l 47 204 l 47 0 l 426 0 l 576 153 l 576 764 z "},"k":{"ha":813,"x_min":19,"x_max":793,"o":"m 406 790 l 411 790 l 544 956 l 793 956 l 793 651 l 704 540 l 793 451 l 793 146 l 661 -18 l 661 -26 l 406 -26 l 406 146 l 274 -18 l 274 -26 l 19 -26 l 19 790 l 24 790 l 157 956 l 406 956 l 406 790 m 526 382 l 635 492 l 635 764 l 432 764 l 432 575 l 340 483 l 247 483 l 247 764 l 44 764 l 44 0 l 247 0 l 247 281 l 340 281 l 432 189 l 432 0 l 635 0 l 635 274 l 526 382 z "},"l":{"ha":735,"x_min":24,"x_max":717,"o":"m 585 -18 l 585 -26 l 24 -26 l 24 789 l 29 789 l 161 954 l 411 954 l 411 408 l 468 481 l 717 481 l 717 146 l 585 -18 m 560 289 l 356 289 l 356 204 l 253 204 l 253 763 l 49 763 l 49 0 l 560 0 l 560 289 z "},"m":{"ha":953,"x_min":17,"x_max":935,"o":"m 563 789 l 694 954 l 935 954 l 935 146 l 804 -18 l 804 -26 l 547 -26 l 547 128 l 543 118 l 419 -35 l 408 -57 l 343 69 l 271 -18 l 271 -26 l 17 -26 l 17 789 l 21 789 l 154 954 l 393 954 l 518 713 q 538 750 529 731 q 557 789 547 769 l 563 789 m 574 763 l 410 443 l 244 763 l 42 763 l 42 0 l 244 0 l 244 318 l 408 0 l 410 0 l 574 318 l 574 0 l 778 0 l 778 763 l 574 763 z "},"n":{"ha":851,"x_min":18,"x_max":824,"o":"m 450 789 l 583 954 l 824 954 l 824 146 l 692 -18 l 692 -26 l 438 -26 l 438 218 l 394 146 l 275 -3 l 263 -26 l 18 -26 l 18 789 l 24 789 l 157 954 l 406 954 l 406 714 l 446 789 l 450 789 m 463 763 l 249 371 l 249 763 l 44 763 l 44 0 l 249 0 l 463 368 l 463 0 l 665 0 l 665 763 l 463 763 z "},"o":{"ha":851,"x_min":17,"x_max":832,"o":"m 433 254 l 444 268 l 432 253 l 433 254 m 442 394 l 444 394 l 444 500 q 427 517 440 504 q 410 533 414 529 l 403 533 l 403 432 l 442 394 m 700 147 l 700 143 l 532 -26 l 185 -26 l 17 143 l 17 621 l 38 643 l 154 789 l 321 956 l 667 956 l 832 789 l 832 313 l 700 147 m 522 764 l 194 764 l 42 611 l 42 153 l 194 0 l 522 0 l 674 153 l 674 611 l 522 764 m 244 256 l 244 510 l 297 560 l 419 560 l 469 510 l 469 256 l 419 204 l 297 204 l 244 256 z "},"p":{"ha":785,"x_min":19,"x_max":767,"o":"m 274 -18 l 274 -26 l 19 -26 l 19 789 l 24 789 l 157 954 l 650 954 l 767 839 l 767 518 l 635 354 l 635 349 l 517 231 l 406 231 l 406 146 l 274 -18 m 247 461 l 247 558 l 406 558 l 406 461 l 247 461 m 507 763 l 44 763 l 44 0 l 247 0 l 247 257 l 507 257 l 610 358 l 610 661 l 507 763 z "},"q":{"ha":858,"x_min":17,"x_max":838,"o":"m 440 394 l 451 394 l 451 500 l 414 533 l 404 533 l 404 432 l 440 394 m 492 -135 l 492 -143 l 238 -143 l 238 -26 l 186 -26 l 17 143 l 17 621 l 39 643 l 156 789 l 322 956 l 671 956 l 838 789 l 838 313 l 706 147 l 706 143 l 624 61 l 624 29 l 492 -135 m 526 764 l 196 764 l 43 611 l 43 153 l 196 0 l 263 0 l 263 -118 l 465 -118 l 465 0 l 526 0 l 679 153 l 679 611 l 526 764 m 297 204 l 247 254 l 247 510 l 304 560 l 425 560 l 476 510 l 476 254 l 425 204 l 297 204 z "},"r":{"ha":836,"x_min":4,"x_max":817,"o":"m 286 -14 l 281 -26 l 4 -26 l 115 251 l 18 349 l 18 671 l 38 692 l 157 839 l 272 954 l 817 954 l 817 146 l 686 -18 l 686 -26 l 429 -26 l 429 185 l 414 146 l 286 -14 m 247 461 l 247 558 l 456 558 l 456 461 l 247 461 m 146 763 l 44 661 l 44 358 l 146 257 l 44 0 l 263 0 l 364 257 l 456 257 l 456 0 l 660 0 l 660 763 l 146 763 z "},"s":{"ha":776,"x_min":18,"x_max":761,"o":"m 629 -19 l 629 -28 l 18 -28 l 18 231 l 25 231 l 121 351 l 18 443 l 18 792 l 25 792 l 157 956 l 761 956 l 761 706 l 633 544 l 761 435 l 761 144 l 629 -19 m 250 560 l 603 560 l 603 764 l 46 764 l 46 456 l 326 204 l 46 204 l 46 0 l 603 0 l 603 256 l 250 560 z "},"t":{"ha":754,"x_min":14,"x_max":733,"o":"m 21 790 l 153 956 l 733 956 l 733 706 l 601 542 l 601 533 l 561 533 l 561 146 l 431 -18 l 431 -26 l 175 -26 l 175 533 l 14 533 l 14 790 l 21 790 m 40 764 l 40 560 l 201 560 l 201 0 l 404 0 l 404 560 l 575 560 l 575 764 l 40 764 z "},"u":{"ha":856,"x_min":13,"x_max":835,"o":"m 703 147 l 703 143 l 535 -26 l 182 -26 l 13 143 l 13 790 l 19 790 l 151 956 l 400 956 l 400 432 l 438 394 l 449 394 l 449 790 l 453 790 l 586 956 l 835 956 l 835 313 l 703 147 m 243 256 l 243 764 l 39 764 l 39 153 l 192 0 l 524 0 l 676 153 l 676 764 l 474 764 l 474 256 l 424 204 l 293 204 l 243 256 z "},"v":{"ha":863,"x_min":13,"x_max":843,"o":"m 463 790 l 594 956 l 843 956 l 843 521 l 618 146 l 501 -1 l 486 -26 l 240 -26 l 13 350 l 13 790 l 18 790 l 151 956 l 400 956 l 400 589 q 429 538 417 561 q 456 493 442 515 l 456 790 l 463 790 m 482 764 l 482 414 l 363 215 l 243 414 l 243 764 l 39 764 l 39 357 l 254 0 l 471 0 l 686 357 l 686 764 l 482 764 z "},"w":{"ha":1086,"x_min":22,"x_max":1068,"o":"m 936 -18 l 936 -26 l 22 -26 l 22 790 l 29 790 l 161 956 l 410 956 l 410 849 l 493 956 l 743 956 l 743 860 l 818 956 l 1068 956 l 1068 146 l 936 -18 m 706 764 l 706 204 l 585 204 l 585 764 l 381 764 l 381 204 l 253 204 l 253 764 l 49 764 l 49 0 l 910 0 l 910 764 l 706 764 z "},"x":{"ha":1026,"x_min":22,"x_max":1006,"o":"m 874 -18 l 874 -26 l 618 -26 l 618 32 l 576 -18 l 576 -26 l 321 -26 l 319 35 l 278 -18 l 278 -26 l 22 -26 l 22 283 l 44 306 l 113 392 l 90 414 q 56 448 74 431 q 22 481 38 465 l 22 790 l 29 790 l 161 956 l 410 956 l 410 893 l 458 956 l 707 956 l 707 893 l 757 956 l 1006 956 l 1006 651 l 917 540 q 1006 451 960 493 l 1006 146 l 874 -18 m 550 483 l 550 764 l 346 764 l 346 483 l 344 483 l 253 575 l 253 764 l 49 764 l 49 492 l 157 382 l 49 274 l 49 0 l 253 0 l 253 189 l 344 281 l 346 281 l 346 0 l 550 0 l 550 281 l 553 281 l 644 189 l 644 0 l 847 0 l 847 274 l 739 382 l 847 492 l 847 764 l 644 764 l 644 575 l 553 483 l 550 483 z "},"y":{"ha":804,"x_min":19,"x_max":781,"o":"m 649 -18 l 649 -26 l 393 -26 l 393 229 l 138 229 l 19 346 l 19 790 l 26 790 l 158 956 l 407 956 l 407 800 l 532 956 l 781 956 l 781 146 l 649 -18 m 419 764 l 419 457 l 250 457 l 250 764 l 46 764 l 46 356 l 147 254 l 419 254 l 419 0 l 622 0 l 622 764 l 419 764 z "},"z":{"ha":863,"x_min":28,"x_max":838,"o":"m 167 433 l 304 533 l 28 533 l 28 790 l 33 790 l 167 956 l 838 956 l 838 613 l 706 447 l 706 443 l 639 394 l 838 394 l 838 146 l 706 -18 l 706 -26 l 28 -26 l 28 267 l 39 274 l 167 433 m 331 204 l 679 456 l 679 764 l 54 764 l 54 560 l 478 560 l 54 254 l 54 0 l 679 0 l 679 204 l 331 204 z "},"\u0000":{"ha":0,"x_min":0,"x_max":0,"o":""},"\r":{"ha":432,"x_min":0,"x_max":0,"o":""},"A":{"ha":933,"x_min":31,"x_max":901,"o":"m 771 -18 l 771 -26 l 515 -26 l 515 51 l 340 51 l 285 -18 l 285 -26 l 31 -26 l 31 307 l 35 307 l 119 410 l 119 790 l 124 790 l 258 956 l 842 956 l 842 472 l 901 472 l 901 146 l 771 -18 m 347 281 l 347 560 l 481 560 l 481 281 l 347 281 m 685 281 l 685 764 l 146 764 l 146 332 l 107 281 l 56 281 l 56 0 l 260 0 l 260 78 l 540 78 l 540 0 l 744 0 l 744 281 l 685 281 z "}}}
